# xmcd CD database file
#
# Track frame offsets:
#	150
#	17500
#	33870
#
# Disc length: 683 seconds
#
# Revision: 0
# Processed by: cddbd v1.5PL3 Copyright (c) Steve Scherf et al.
# Submitted via: CDex 1.50
#
DISCID=1402a903
DTITLE=明和電機 - エーデルワイス
DYEAR=1997
DGENRE=Pop
TTITLE0=エーデルワイス
TTITLE1=エーデルワイス(ツクバREMIX)
TTITLE2=エーデルワイス(オリジナル･カラオケ)
EXTD=YEAR: 1997
EXTT0=
EXTT1=
EXTT2=
PLAYORDER=
